<svg width="17" height="16" viewBox="0 0 17 16" fill="none" xmlns="http://www.w3.org/2000/svg">
<path d="M15.54 8.16602C15.54 7.64602 15.4933 7.14602 15.4067 6.66602H8.5V9.50268H12.4467C12.2767 10.4193 11.76 11.196 10.9833 11.716V13.556H13.3533C14.74 12.2793 15.54 10.3993 15.54 8.16602Z" fill="#4285F4"/>
<path d="M8.49962 15.3326C10.4796 15.3326 12.1396 14.6759 13.353 13.5559L10.983 11.7159C10.3263 12.1559 9.48629 12.4159 8.49962 12.4159C6.58962 12.4159 4.97296 11.1259 4.39629 9.39258H1.94629V11.2926C3.15296 13.6892 5.63296 15.3326 8.49962 15.3326Z" fill="#34A853"/>
<path d="M4.39699 9.3937C4.25033 8.9537 4.16699 8.4837 4.16699 8.00036C4.16699 7.51703 4.25033 7.04703 4.39699 6.60703V4.70703H1.94699C1.43366 5.72894 1.16654 6.85677 1.16699 8.00036C1.16699 9.1837 1.45033 10.3037 1.94699 11.2937L4.39699 9.3937Z" fill="#FBBC05"/>
<path d="M8.49962 3.58268C9.57629 3.58268 10.543 3.95268 11.303 4.67935L13.4063 2.57602C12.1363 1.39268 10.4763 0.666016 8.49962 0.666016C5.63296 0.666016 3.15296 2.30935 1.94629 4.70602L4.39629 6.60602C4.97296 4.87268 6.58962 3.58268 8.49962 3.58268Z" fill="#EA4335"/>
</svg>
